<svg xmlns="http://www.w3.org/2000/svg" viewBox="0 0 400 300" fill="none">
  <rect width="400" height="300" fill="#0E1019"/>
  <rect x="80" y="40" width="240" height="160" rx="8" stroke="#82B1FF" stroke-width="2" fill="#181D32"/>
  <rect x="95" y="55" width="210" height="130" rx="4" fill="#0E1019"/>
  <rect x="60" y="200" width="280" height="12" rx="4" fill="#1E2440" stroke="#82B1FF" stroke-width="1"/>
  <circle cx="200" cy="206" r="3" fill="#82B1FF" opacity="0.5"/>
  <g transform="translate(320,80)" stroke="#69F0AE" stroke-width="1.5" fill="none">
    <path d="M0 0 L15 10 L0 20"/><path d="M5 0 L20 10 L5 20"/>
  </g>
  <g transform="translate(50,100)" stroke="#FFD740" stroke-width="1.5" fill="none">
    <line x1="0" y1="0" x2="0" y2="30"/><line x1="-5" y1="25" x2="0" y2="30"/><line x1="5" y1="25" x2="0" y2="30"/>
    <circle cx="0" cy="0" r="4" stroke="#FFD740" fill="#0E1019"/>
  </g>
  <g stroke="#B388FF" stroke-width="0.5" opacity="0.3">
    <line x1="100" y1="70" x2="300" y2="70"/><line x1="100" y1="80" x2="300" y2="80"/>
    <line x1="100" y1="90" x2="300" y2="90"/><line x1="100" y1="100" x2="300" y2="100"/>
    <line x1="100" y1="110" x2="300" y2="110"/><line x1="100" y1="120" x2="300" y2="120"/>
  </g>
  <text x="200" y="100" text-anchor="middle" fill="#82B1FF" font-size="10" font-family="monospace" opacity="0.6">DIAGNÓSTICO</text>
  <text x="200" y="120" text-anchor="middle" fill="#18FFFF" font-size="8" font-family="monospace" opacity="0.4">RUNNING...</text>
  <circle cx="200" cy="160" r="6" fill="#69F0AE" opacity="0.8">
    <animate attributeName="r" values="6;8;6" dur="1s" repeatCount="indefinite"/>
  </circle>
</svg>